<?xml version="1.0"?>
<svg xmlns="http://www.w3.org/2000/svg" xmlns:xlink="http://www.w3.org/1999/xlink" xmlns:svgjs="http://svgjs.com/svgjs" version="1.1" width="512" height="512" x="0" y="0" viewBox="0 0 511.95 511.95" style="enable-background:new 0 0 512 512" xml:space="preserve" class=""><g><g xmlns="http://www.w3.org/2000/svg"><path d="m415.117 147.5v-80c0-15.163-12.337-27.5-27.5-27.5h-249.681c-4.142 0-7.5 3.357-7.5 7.5s3.358 7.5 7.5 7.5h249.681c6.893 0 12.5 5.607 12.5 12.5v80c0 6.893-5.607 12.5-12.5 12.5h-320c-6.893 0-12.5-5.607-12.5-12.5v-80c0-6.893 5.607-12.5 12.5-12.5h35.34c4.142 0 7.5-3.357 7.5-7.5s-3.358-7.5-7.5-7.5h-35.34c-15.164 0-27.5 12.337-27.5 27.5v80c0 15.163 12.336 27.5 27.5 27.5h320c15.163 0 27.5-12.337 27.5-27.5z" fill="#ffffff" data-original="#000000" style="" class=""/><path d="m285.117 240.824c0-12.406-10.094-22.5-22.5-22.5h-70c-12.407 0-22.5 10.094-22.5 22.5v70c0 12.406 10.093 22.5 22.5 22.5h70c12.406 0 22.5-10.094 22.5-22.5zm-15 70c0 4.136-3.364 7.5-7.5 7.5h-70c-4.136 0-7.5-3.364-7.5-7.5v-70c0-4.136 3.364-7.5 7.5-7.5h70c4.136 0 7.5 3.364 7.5 7.5z" fill="#ffffff" data-original="#000000" style="" class=""/><path d="m262.617 348.5h-70c-12.407 0-22.5 10.094-22.5 22.5v70c0 12.406 10.093 22.5 22.5 22.5h70c12.406 0 22.5-10.094 22.5-22.5v-70c0-12.406-10.094-22.5-22.5-22.5zm7.5 92.5c0 4.136-3.364 7.5-7.5 7.5h-70c-4.136 0-7.5-3.364-7.5-7.5v-70c0-4.136 3.364-7.5 7.5-7.5h70c4.136 0 7.5 3.364 7.5 7.5z" fill="#ffffff" data-original="#000000" style="" class=""/><path d="m252.92 250.521c-2.929-2.928-7.678-2.928-10.606 0l-14.697 14.697-14.697-14.697c-2.929-2.928-7.678-2.928-10.606 0-2.929 2.93-2.929 7.678 0 10.607l14.696 14.696-14.696 14.696c-2.929 2.93-2.929 7.678 0 10.607 2.345 2.163 6.713 3.401 10.606 0l14.697-14.697 14.697 14.697c2.345 2.163 6.713 3.401 10.606 0 2.929-2.93 2.929-7.678 0-10.607l-14.696-14.696 14.696-14.696c2.929-2.93 2.929-7.678 0-10.607z" fill="#ffffff" data-original="#000000" style="" class=""/><path d="m253.92 379.696c-2.929-2.928-7.678-2.928-10.606 0l-42 42c-2.929 2.93-2.929 7.678 0 10.607 2.345 2.163 6.713 3.401 10.606 0l42-42c2.929-2.929 2.929-7.677 0-10.607z" fill="#ffffff" data-original="#000000" style="" class=""/><path d="m155.117 240.824c0-12.406-10.093-22.5-22.5-22.5h-70c-12.407 0-22.5 10.094-22.5 22.5v70c0 12.406 10.093 22.5 22.5 22.5h70c12.407 0 22.5-10.094 22.5-22.5zm-15 70c0 4.136-3.364 7.5-7.5 7.5h-70c-4.136 0-7.5-3.364-7.5-7.5v-70c0-4.136 3.364-7.5 7.5-7.5h70c4.136 0 7.5 3.364 7.5 7.5z" fill="#ffffff" data-original="#000000" style="" class=""/><path d="m47.617 416.224c-4.142 0-7.5 3.357-7.5 7.5v17.276c0 12.406 10.093 22.5 22.5 22.5h70c12.407 0 22.5-10.094 22.5-22.5v-70c0-12.406-10.093-22.5-22.5-22.5h-70c-12.407 0-22.5 10.094-22.5 22.5v17.702c0 4.143 3.358 7.5 7.5 7.5s7.5-3.357 7.5-7.5v-17.702c0-4.136 3.364-7.5 7.5-7.5h70c4.136 0 7.5 3.364 7.5 7.5v70c0 4.136-3.364 7.5-7.5 7.5h-70c-4.136 0-7.5-3.364-7.5-7.5v-17.276c0-4.143-3.358-7.5-7.5-7.5z" fill="#ffffff" data-original="#000000" style="" class=""/><path d="m117.617 268.324h-12.5v-12.5c0-4.143-3.358-7.5-7.5-7.5s-7.5 3.357-7.5 7.5v12.5h-12.5c-4.142 0-7.5 3.357-7.5 7.5s3.358 7.5 7.5 7.5h12.5v12.5c0 4.143 3.358 7.5 7.5 7.5s7.5-3.357 7.5-7.5v-12.5h12.5c4.142 0 7.5-3.357 7.5-7.5s-3.358-7.5-7.5-7.5z" fill="#ffffff" data-original="#000000" style="" class=""/><path d="m117.617 413.5c4.142 0 7.5-3.357 7.5-7.5s-3.358-7.5-7.5-7.5h-40c-4.142 0-7.5 3.357-7.5 7.5s3.358 7.5 7.5 7.5z" fill="#ffffff" data-original="#000000" style="" class=""/><path d="m122.617 203.324c4.142 0 7.5-3.357 7.5-7.5s-3.358-7.5-7.5-7.5h-50c-4.142 0-7.5 3.357-7.5 7.5s3.358 7.5 7.5 7.5z" fill="#ffffff" data-original="#000000" style="" class=""/><path d="m252.617 203.324c4.142 0 7.5-3.357 7.5-7.5s-3.358-7.5-7.5-7.5h-50c-4.142 0-7.5 3.357-7.5 7.5s3.358 7.5 7.5 7.5z" fill="#ffffff" data-original="#000000" style="" class=""/><path d="m332.617 188.324c-4.143 0-7.5 3.357-7.5 7.5s3.357 7.5 7.5 7.5h50c4.143 0 7.5-3.357 7.5-7.5s-3.357-7.5-7.5-7.5z" fill="#ffffff" data-original="#000000" style="" class=""/><path d="m87.617 119.324c-4.141 0-7.498 3.355-7.5 7.496-.002 4.143 3.354 7.502 7.497 7.504l207.507.095h.003c4.141 0 7.498-3.355 7.5-7.496.002-4.143-3.354-7.502-7.496-7.504l-207.508-.095c-.001 0-.002 0-.003 0z" fill="#ffffff" data-original="#000000" style="" class=""/><path d="m361.82 79.615-42 42c-2.929 2.93-2.929 7.678 0 10.607 1.465 1.464 3.385 2.196 5.304 2.196s3.839-.732 5.304-2.196l42-42c2.929-2.93 2.929-7.678 0-10.607-2.93-2.927-7.678-2.927-10.608 0z" fill="#ffffff" data-original="#000000" style="" class=""/><path d="m480.336 331.046c-7.703-7.703-16.395-14.026-25.719-18.92v-138.828c0-4.143-3.357-7.5-7.5-7.5s-7.5 3.357-7.5 7.5v132.382c-7.933-2.708-16.156-4.476-24.5-5.248v-59.432c0-12.406-10.094-22.5-22.5-22.5h-70c-12.406 0-22.5 10.094-22.5 22.5v152.902c0 .016.002.032.002.049-3.517 31.005 6.583 63.275 30.31 87.003 2.127 2.127 4.326 4.138 6.583 6.046h-278.895c-23.435 0-42.5-19.065-42.5-42.5v-387c0-23.435 19.065-42.5 42.5-42.5h339c23.435 0 42.5 19.065 42.5 42.5v80.819c0 4.143 3.357 7.5 7.5 7.5s7.5-3.357 7.5-7.5v-80.819c0-31.706-25.794-57.5-57.5-57.5h-339c-31.706 0-57.5 25.794-57.5 57.5v387c0 31.706 25.794 57.5 57.5 57.5h302.31c14.199 6.633 29.576 9.952 44.956 9.95 27.141-.002 54.291-10.335 74.954-30.996 41.329-41.33 41.329-108.578-.001-149.908zm-10.607 139.301c-17.742 17.743-41.041 26.613-64.347 26.61-23.3-.002-46.608-8.872-64.346-26.61-36.518-36.302-35.292-97.402 3.506-132.021 3.077-2.772 3.325-7.515.554-10.593-2.774-3.078-7.516-3.325-10.593-.554-6.09 5.303-14.566 15.19-19.387 23.238v-109.417c0-4.136 3.364-7.5 7.5-7.5h70c4.136 0 7.5 3.364 7.5 7.5v59.108c-11.413.566-22.846 2.982-33.854 7.348-3.851 1.526-5.735 5.885-4.208 9.735 1.527 3.853 5.889 5.738 9.735 4.208 10.455-4.259 24.34-6.745 35.963-6.387 22.867.602 45.151 9.815 61.977 26.641 35.482 35.481 35.482 93.213 0 128.694z" fill="#ffffff" data-original="#000000" style="" class=""/><path d="m370.551 395.075c6.125 0 12.25-2.332 16.913-6.994 9.324-9.325 9.324-24.499 0-33.824-8.792-8.978-24.531-9.253-33.826 0-9.324 9.325-9.324 24.499.001 33.825 4.662 4.662 10.787 6.993 16.912 6.993zm-6.306-30.212c2.771-2.555 7.907-4.054 12.612 0 3.477 3.478 3.477 9.135.001 12.611-3.479 3.477-9.136 3.476-12.612.001-3.477-3.477-3.477-9.135-.001-12.612z" fill="#ffffff" data-original="#000000" style="" class=""/><path d="m457.118 423.91c-9.324-9.324-24.499-9.324-33.825 0-9.325 9.326-9.325 24.499 0 33.825 8.601 8.518 23.89 9.793 33.826 0 9.325-9.326 9.325-24.499-.001-33.825zm-10.607 23.218c-3.477 3.479-9.135 3.479-12.611 0-3.478-3.477-3.478-9.134-.001-12.61 2.771-2.555 7.908-4.054 12.612 0 3.478 3.476 3.478 9.133 0 12.61z" fill="#ffffff" data-original="#000000" style="" class=""/><path d="m456.735 354.647c-2.93-2.928-7.678-2.928-10.607 0l-92.098 92.098c-2.929 2.93-2.929 7.678 0 10.607 1.465 1.464 3.385 2.196 5.304 2.196s3.839-.732 5.304-2.196l92.098-92.098c2.928-2.929 2.928-7.677-.001-10.607z" fill="#ffffff" data-original="#000000" style="" class=""/><circle cx="325.117" cy="84.7" r="7.5" fill="#ffffff" data-original="#000000" style="" class=""/><circle cx="367.34" cy="127.129" r="7.5" fill="#ffffff" data-original="#000000" style="" class=""/><circle cx="206.506" cy="384.786" r="7.5" fill="#ffffff" data-original="#000000" style="" class=""/><circle cx="248.728" cy="427.215" r="7.5" fill="#ffffff" data-original="#000000" style="" class=""/></g></g></svg>
