<svg xmlns="http://www.w3.org/2000/svg" width="512" height="512" viewBox="0 0 511.95 511.95"><g xmlns="http://www.w3.org/2000/svg" fill="#fff"><path d="M415.117 147.5v-80c0-15.163-12.337-27.5-27.5-27.5H137.936c-4.142 0-7.5 3.357-7.5 7.5s3.358 7.5 7.5 7.5h249.681c6.893 0 12.5 5.607 12.5 12.5v80c0 6.893-5.607 12.5-12.5 12.5h-320c-6.893 0-12.5-5.607-12.5-12.5v-80c0-6.893 5.607-12.5 12.5-12.5h35.34c4.142 0 7.5-3.357 7.5-7.5s-3.358-7.5-7.5-7.5h-35.34c-15.164 0-27.5 12.337-27.5 27.5v80c0 15.163 12.336 27.5 27.5 27.5h320c15.163 0 27.5-12.337 27.5-27.5zm-130 93.324c0-12.406-10.094-22.5-22.5-22.5h-70c-12.407 0-22.5 10.094-22.5 22.5v70c0 12.406 10.093 22.5 22.5 22.5h70c12.406 0 22.5-10.094 22.5-22.5zm-15 70c0 4.136-3.364 7.5-7.5 7.5h-70c-4.136 0-7.5-3.364-7.5-7.5v-70c0-4.136 3.364-7.5 7.5-7.5h70c4.136 0 7.5 3.364 7.5 7.5zm-7.5 37.676h-70c-12.407 0-22.5 10.094-22.5 22.5v70c0 12.406 10.093 22.5 22.5 22.5h70c12.406 0 22.5-10.094 22.5-22.5v-70c0-12.406-10.094-22.5-22.5-22.5zm7.5 92.5c0 4.136-3.364 7.5-7.5 7.5h-70c-4.136 0-7.5-3.364-7.5-7.5v-70c0-4.136 3.364-7.5 7.5-7.5h70c4.136 0 7.5 3.364 7.5 7.5z" data-original="#000000"/><path d="M252.92 250.521a7.501 7.501 0 00-10.606 0l-14.697 14.697-14.697-14.697a7.501 7.501 0 00-10.606 10.607l14.696 14.696-14.696 14.696a7.5 7.5 0 000 10.607c2.345 2.163 6.713 3.401 10.606 0l14.697-14.697 14.697 14.697c2.345 2.163 6.713 3.401 10.606 0a7.5 7.5 0 000-10.607l-14.696-14.696 14.696-14.696a7.5 7.5 0 000-10.607zm1 129.175a7.501 7.501 0 00-10.606 0l-42 42a7.5 7.5 0 000 10.607c2.345 2.163 6.713 3.401 10.606 0l42-42a7.5 7.5 0 000-10.607zm-98.803-138.872c0-12.406-10.093-22.5-22.5-22.5h-70c-12.407 0-22.5 10.094-22.5 22.5v70c0 12.406 10.093 22.5 22.5 22.5h70c12.407 0 22.5-10.094 22.5-22.5zm-15 70c0 4.136-3.364 7.5-7.5 7.5h-70c-4.136 0-7.5-3.364-7.5-7.5v-70c0-4.136 3.364-7.5 7.5-7.5h70c4.136 0 7.5 3.364 7.5 7.5zm-92.5 105.4a7.5 7.5 0 00-7.5 7.5V441c0 12.406 10.093 22.5 22.5 22.5h70c12.407 0 22.5-10.094 22.5-22.5v-70c0-12.406-10.093-22.5-22.5-22.5h-70c-12.407 0-22.5 10.094-22.5 22.5v17.702c0 4.143 3.358 7.5 7.5 7.5s7.5-3.357 7.5-7.5V371c0-4.136 3.364-7.5 7.5-7.5h70c4.136 0 7.5 3.364 7.5 7.5v70c0 4.136-3.364 7.5-7.5 7.5h-70c-4.136 0-7.5-3.364-7.5-7.5v-17.276a7.5 7.5 0 00-7.5-7.5z" data-original="#000000"/><path d="M117.617 268.324h-12.5v-12.5c0-4.143-3.358-7.5-7.5-7.5s-7.5 3.357-7.5 7.5v12.5h-12.5c-4.142 0-7.5 3.357-7.5 7.5s3.358 7.5 7.5 7.5h12.5v12.5c0 4.143 3.358 7.5 7.5 7.5s7.5-3.357 7.5-7.5v-12.5h12.5c4.142 0 7.5-3.357 7.5-7.5s-3.358-7.5-7.5-7.5zm0 145.176c4.142 0 7.5-3.357 7.5-7.5s-3.358-7.5-7.5-7.5h-40c-4.142 0-7.5 3.357-7.5 7.5s3.358 7.5 7.5 7.5zm5-210.176c4.142 0 7.5-3.357 7.5-7.5s-3.358-7.5-7.5-7.5h-50c-4.142 0-7.5 3.357-7.5 7.5s3.358 7.5 7.5 7.5zm130 0c4.142 0 7.5-3.357 7.5-7.5s-3.358-7.5-7.5-7.5h-50c-4.142 0-7.5 3.357-7.5 7.5s3.358 7.5 7.5 7.5zm80-15c-4.143 0-7.5 3.357-7.5 7.5s3.357 7.5 7.5 7.5h50c4.143 0 7.5-3.357 7.5-7.5s-3.357-7.5-7.5-7.5zm-245-69a7.5 7.5 0 00-.003 15l207.507.095h.003a7.5 7.5 0 007.5-7.496 7.5 7.5 0 00-7.496-7.504l-207.508-.095h-.003zM361.82 79.615l-42 42a7.5 7.5 0 1010.608 10.607l42-42a7.5 7.5 0 10-10.608-10.607z" data-original="#000000"/><path d="M480.336 331.046a106.022 106.022 0 00-25.719-18.92V173.298c0-4.143-3.357-7.5-7.5-7.5s-7.5 3.357-7.5 7.5V305.68a106.106 106.106 0 00-24.5-5.248V241c0-12.406-10.094-22.5-22.5-22.5h-70c-12.406 0-22.5 10.094-22.5 22.5v152.902l.002.049c-3.517 31.005 6.583 63.275 30.31 87.003a106.893 106.893 0 006.583 6.046H58.117c-23.435 0-42.5-19.065-42.5-42.5v-387c0-23.435 19.065-42.5 42.5-42.5h339c23.435 0 42.5 19.065 42.5 42.5v80.819c0 4.143 3.357 7.5 7.5 7.5s7.5-3.357 7.5-7.5V57.5c0-31.706-25.794-57.5-57.5-57.5h-339C26.411 0 .617 25.794.617 57.5v387c0 31.706 25.794 57.5 57.5 57.5h302.31c14.199 6.633 29.576 9.952 44.956 9.95 27.141-.002 54.291-10.335 74.954-30.996 41.329-41.33 41.329-108.578-.001-149.908zm-10.607 139.301c-17.742 17.743-41.041 26.613-64.347 26.61-23.3-.002-46.608-8.872-64.346-26.61-36.518-36.302-35.292-97.402 3.506-132.021a7.503 7.503 0 00.554-10.593 7.502 7.502 0 00-10.593-.554c-6.09 5.303-14.566 15.19-19.387 23.238V241c0-4.136 3.364-7.5 7.5-7.5h70c4.136 0 7.5 3.364 7.5 7.5v59.108a105.99 105.99 0 00-33.854 7.348 7.498 7.498 0 00-4.208 9.735c1.527 3.853 5.889 5.738 9.735 4.208 10.455-4.259 24.34-6.745 35.963-6.387a90.966 90.966 0 0161.977 26.641c35.482 35.481 35.482 93.213 0 128.694z" data-original="#000000"/><path d="M370.551 395.075c6.125 0 12.25-2.332 16.913-6.994 9.324-9.325 9.324-24.499 0-33.824-8.792-8.978-24.531-9.253-33.826 0-9.324 9.325-9.324 24.499.001 33.825 4.662 4.662 10.787 6.993 16.912 6.993zm-6.306-30.212c2.771-2.555 7.907-4.054 12.612 0 3.477 3.478 3.477 9.135.001 12.611-3.479 3.477-9.136 3.476-12.612.001-3.477-3.477-3.477-9.135-.001-12.612zm92.873 59.047c-9.324-9.324-24.499-9.324-33.825 0-9.325 9.326-9.325 24.499 0 33.825 8.601 8.518 23.89 9.793 33.826 0 9.325-9.326 9.325-24.499-.001-33.825zm-10.607 23.218c-3.477 3.479-9.135 3.479-12.611 0-3.478-3.477-3.478-9.134-.001-12.61 2.771-2.555 7.908-4.054 12.612 0 3.478 3.476 3.478 9.133 0 12.61zm10.224-92.481a7.502 7.502 0 00-10.607 0l-92.098 92.098a7.5 7.5 0 1010.608 10.607l92.098-92.098a7.501 7.501 0 00-.001-10.607z" data-original="#000000"/><circle cx="325.117" cy="84.7" r="7.5" data-original="#000000"/><circle cx="367.34" cy="127.129" r="7.5" data-original="#000000"/><circle cx="206.506" cy="384.786" r="7.5" data-original="#000000"/><circle cx="248.728" cy="427.215" r="7.5" data-original="#000000"/></g></svg>